PathFileType	4	(X/Y/Z)	/Users/niels/Desktop/University/Third Semester/Perception and Action/Exam/Gymnastics Motion Tracking/Code for Gym Tracking/Analyzed Data/Webcam_Backflip/id2_2_trajectory_Sports2D/id2_2_trajectory_Sports2D_px_person00.trc
DataRate	CameraRate	NumFrames	NumMarkers	Units	OrigDataRate	OrigDataStartFrame	OrigNumFrames
29.928400954653938	29.928400954653938	12	22	m	29.928400954653938	52	419
Frame#	Time	Hip			RHip			RKnee			RAnkle			RBigToe			RSmallToe			RHeel			LHip			LKnee			LAnkle			LBigToe			LSmallToe			LHeel			Neck			Head			Nose			RShoulder			RElbow			RWrist			LShoulder			LElbow			LWrist		
		X1	Y1	Z1	X2	Y2	Z2	X3	Y3	Z3	X4	Y4	Z4	X5	Y5	Z5	X6	Y6	Z6	X7	Y7	Z7	X8	Y8	Z8	X9	Y9	Z9	X10	Y10	Z10	X11	Y11	Z11	X12	Y12	Z12	X13	Y13	Z13	X14	Y14	Z14	X15	Y15	Z15	X16	Y16	Z16	X17	Y17	Z17	X18	Y18	Z18	X19	Y19	Z19	X20	Y20	Z20	X21	Y21	Z21	X22	Y22	Z22
52	1.7374800637958532	0.8938480352537533	-0.48641579245511085	0.0	0.8692016437088314	-0.4818864438846088	0.0	0.8486754225548113	-0.7150815304020515	0.0	0.8032602619033323	-0.9342324285195199	0.0	0.896023365128003	-0.9792115121417084	0.0	0.8718623043293714	-0.988605518077627	0.0	0.7769686417791069	-0.9619072243885338	0.0	0.9171713334244997	-0.48953284195103103	0.0	0.9354402147263964	-0.7110488759058218	0.0	0.8200807112049171	-0.907361718173404	0.0	0.9143295179847655	-0.9601443315726145	0.0	0.9064576618859067	-0.9465501414182624	0.0	0.7831345375200106	-0.9281954672151407	0.0	0.9374042802282934	-0.16089474485265437	0.0	0.966241786531494	-0.021785435011614576	0.0	0.9782800718855996	-0.0993660709287947	0.0	0.8823314703544268	-0.18583163810021927	0.0	0.7643755378008972	-0.2884357035942464	0.0	0.680982686303811	-0.40997688552991596	0.0	0.9592267401706758	-0.21318284967107823	0.0	0.9568716057570573	-0.3689252130907166	0.0	1.011483605063469	-0.48911087541660186	0.0
53	1.7708931419457736	0.8936155278035747	-0.4879243863881282	0.0	0.8688864133986032	-0.483001713583491	0.0	0.8478340846810627	-0.7170044440838397	0.0	0.8030157234831137	-0.9363376589333573	0.0	0.8956685153294028	-0.9776514398376717	0.0	0.8716032250536953	-0.986740210388243	0.0	0.7779881274105488	-0.9641611455753113	0.0	0.9161687929754415	-0.4908523327301847	0.0	0.9340880631669506	-0.7132648915052479	0.0	0.8219972154962234	-0.9147174130647355	0.0	0.915765745878122	-0.964261208828555	0.0	0.9080710755126316	-0.9508668575613418	0.0	0.7872884970891701	-0.9349517942304557	0.0	0.9378248254168492	-0.16088139433386284	0.0	0.9682578910312427	-0.021996157795759644	0.0	0.9788266789338729	-0.09984245063473753	0.0	0.8830167424895077	-0.18456658971805298	0.0	0.7627405197208386	-0.28471179680606634	0.0	0.673370146511377	-0.4030349943682479	0.0	0.9592740042622079	-0.21266579082401452	0.0	0.9572343164964735	-0.368446852954313	0.0	1.0091152307079891	-0.48875511706777547	0.0
54	1.8043062200956939	0.8931488863113191	-0.489190785071353	0.0	0.8681467265075937	-0.4839985468394581	0.0	0.8469237778557285	-0.718516856480011	0.0	0.8028689272864535	-0.9376054559337372	0.0	0.8949165573879592	-0.9761254038572482	0.0	0.8708777244290759	-0.9846655249374027	0.0	0.7790481238222384	-0.9655752477613929	0.0	0.915309173731893	-0.49195288722345554	0.0	0.9335809882694914	-0.7148957660414378	0.0	0.8231197561743648	-0.9200056961945149	0.0	0.9173205151164431	-0.9674695155687807	0.0	0.9089891466103159	-0.9542257937111004	0.0	0.7905238623778812	-0.9399328971445514	0.0	0.9383482581800116	-0.16073173109755082	0.0	0.970308313396657	-0.02231409158269491	0.0	0.9795374571934399	-0.10034326182963393	0.0	0.8833134665830974	-0.18301460360336666	0.0	0.7609081226919866	-0.28115789094414106	0.0	0.66626103535464	-0.3962121609428241	0.0	0.9592142642228113	-0.21212369383708066	0.0	0.9559581553265983	-0.36725753459700655	0.0	1.0055851023285216	-0.4877471538117823	0.0
55	1.837719298245614	0.8924905973881687	-0.49014439682587113	0.0	0.8671697947902286	-0.48472052179260033	0.0	0.8459854086104989	-0.7195709085170326	0.0	0.8027094796901239	-0.9382434787397198	0.0	0.8939212620984737	-0.975012808144276	0.0	0.8698207884370892	-0.9829242445693216	0.0	0.7799481872328361	-0.9663056636227728	0.0	0.9144842876490609	-0.49273935926604223	0.0	0.9336352076901554	-0.7158502267866665	0.0	0.8235642712849327	-0.9235153323022979	0.0	0.9188906708969496	-0.9698064686015906	0.0	0.9094018265989711	-0.9566540593025469	0.0	0.7926350139284007	-0.9434300286025824	0.0	0.9389177251701945	-0.16047008165215715	0.0	0.9724019241726205	-0.022683768427098093	0.0	0.9805318402756776	-0.1008454575930468	0.0	0.8832685678952644	-0.18142050827012676	0.0	0.7589304355952529	-0.27801180608576587	0.0	0.6597558794506182	-0.38967067566053865	0.0	0.9592007386478804	-0.21171311905566254	0.0	0.9542462112537358	-0.3658379441383416	0.0	1.0019370103742202	-0.4865348890901517	0.0
56	1.8711323763955343	0.8916323874649782	-0.4907402275668458	0.0	0.8661243606751398	-0.4851074274612525	0.0	0.8450803915723685	-0.720221524595948	0.0	0.8025549286613168	-0.938532665260728	0.0	0.8930306744301654	-0.974468703286897	0.0	0.8688303975545022	-0.9818450216386155	0.0	0.7806511623749189	-0.9665867154361582	0.0	0.913524424185444	-0.49320629084209894	0.0	0.9338865410384736	-0.7162463916390658	0.0	0.8236312997863302	-0.9255911331209903	0.0	0.9202189707877558	-0.9712423229328675	0.0	0.9094679373210306	-0.9581312855943148	0.0	0.7937294338024966	-0.9455865098938229	0.0	0.9394417043569467	-0.1601953405440518	0.0	0.974476883775504	-0.02305893131243795	0.0	0.9817475180316163	-0.1013620449515679	0.0	0.8829425184837429	-0.18008595749682552	0.0	0.7569422191431947	-0.2754565527954124	0.0	0.6540381094528305	-0.38360901392172075	0.0	0.9592705310113971	-0.21160486486368874	0.0	0.9529334722364362	-0.36469082581985995	0.0	0.9987434909504876	-0.4854322651995971	0.0
57	1.9045454545454545	0.8905576486148892	-0.49096408152890375	0.0	0.8650469858448918	-0.48521508531738394	0.0	0.8442433185480052	-0.720603534854249	0.0	0.8024101852724705	-0.9386851512236211	0.0	0.8924222319698305	-0.9743596330444466	0.0	0.8681862594048655	-0.9813686070684102	0.0	0.7811116167129064	-0.9666272012988246	0.0	0.9123076820567466	-0.49343948104384183	0.0	0.933914603570336	-0.7163729371173301	0.0	0.8234996658391	-0.92665143174063	0.0	0.9210517866208406	-0.9719832621085038	0.0	0.9092947830701914	-0.9588790006057327	0.0	0.794087750585839	-0.9467200732386052	0.0	0.939847408039079	-0.16002511924745752	0.0	0.976406145581936	-0.02345804606513233	0.0	0.9830506975160408	-0.10191970511401394	0.0	0.8824558414605254	-0.17917706855242507	0.0	0.7551094395750944	-0.273570709377094	0.0	0.6493585309231709	-0.3783736398198131	0.0	0.9593971628671877	-0.21187691808548342	0.0	0.9522473916558656	-0.36411001591618697	0.0	0.9959570225294813	-0.48453986114757386	0.0
58	1.9379585326953748	0.8892932601167972	-0.49083273637102653	0.0	0.8638953135093425	-0.48513090391953767	0.0	0.8434544738697164	-0.7208309064233067	0.0	0.8022302518505897	-0.9387808189392558	0.0	0.8919980210555696	-0.9744031605308823	0.0	0.8678687387177917	-0.9811875509240866	0.0	0.7812676916791665	-0.966604270077132	0.0	0.910807921560375	-0.4935140848608431	0.0	0.9334208264677669	-0.7165037871650427	0.0	0.8231908085893963	-0.9271409125593125	0.0	0.9213748020464759	-0.9724359419903416	0.0	0.9089884555583073	-0.9593176876671593	0.0	0.7940567297525044	-0.9473556624952529	0.0	0.9401217211084655	-0.16003482304772024	0.0	0.9780564303127911	-0.023925789301452824	0.0	0.9843018215822243	-0.10254550770166593	0.0	0.8819941230236286	-0.17869915336391776	0.0	0.7536442233659253	-0.272314593299923	0.0	0.6459551578721197	-0.3743633075283723	0.0	0.9595476019220771	-0.21245208451306974	0.0	0.9520572737266393	-0.3641234463241916	0.0	0.9934237449412424	-0.48391817544672616	0.0
59	1.971371610845295	0.887939490127259	-0.4903624426124864	0.0	0.8626710489619634	-0.48489870125300566	0.0	0.8427180961810231	-0.7208736017706541	0.0	0.8020230301083916	-0.9388348242235205	0.0	0.8916329042570973	-0.97437178856772	0.0	0.8677480943585092	-0.9810461477427385	0.0	0.781154266015629	-0.9666557395766278	0.0	0.9090966617098795	-0.49342740953882464	0.0	0.9324117068257437	-0.7166899137101906	0.0	0.8227504873179092	-0.9274058945715523	0.0	0.9214002650336046	-0.9728535818107513	0.0	0.9086627523534415	-0.9597103068472603	0.0	0.79394187012038	-0.9479072968029335	0.0	0.940315826546732	-0.16022850260273744	0.0	0.9793246408006181	-0.024462556920339804	0.0	0.985358350323763	-0.10322882122900852	0.0	0.881749238834179	-0.1786041808738078	0.0	0.752776892561932	-0.27158337393625126	0.0	0.6439733518685756	-0.3717958357706781	0.0	0.9596801069393831	-0.21314961532140636	0.0	0.9521106967860319	-0.36451395395375025	0.0	0.9912901221526536	-0.48357522031653305	0.0
60	2.0047846889952154	0.8866353526469513	-0.48957088266044607	0.0	0.8614624696744562	-0.48448128561122145	0.0	0.8421287365940111	-0.7205736348432908	0.0	0.8018681745364017	-0.9388779187111629	0.0	0.8913006324371829	-0.9741438221838945	0.0	0.8677515820422667	-0.9808329292188824	0.0	0.7808903522555155	-0.9668241123730006	0.0	0.9073512414426473	-0.49312394621169514	0.0	0.9312075241071628	-0.7167276722033065	0.0	0.8223147316256645	-0.9276188623152736	0.0	0.921356342597608	-0.973185705521909	0.0	0.9084068624919811	-0.9600144214879301	0.0	0.7939164622224951	-0.9484829262328484	0.0	0.9405009642979933	-0.16053657606907382	0.0	0.9801807787809018	-0.02503661964361748	0.0	0.9860753600470553	-0.10387293635664746	0.0	0.8818512331383467	-0.17881999987710825	0.0	0.7526084609638262	-0.27128629748231164	0.0	0.6433846313924897	-0.3706598073646386	0.0	0.9597289409571783	-0.2137410600951099	0.0	0.9520973015541564	-0.3649396251926667	0.0	0.9898634957847212	-0.4834114839514631	0.0
61	2.0381977671451357	0.8854644583868265	-0.4885415011935362	0.0	0.8603641724104606	-0.48378825520007096	0.0	0.8417938964659746	-0.7198070629320661	0.0	0.8018107227031197	-0.9389268475450642	0.0	0.8910217075590777	-0.9736396053592331	0.0	0.8678623806496336	-0.9804765626429041	0.0	0.7805554466842699	-0.9670226271671113	0.0	0.905817668820378	-0.492555973647595	0.0	0.9302077985326147	-0.7163868706637843	0.0	0.8220080006464029	-0.9277875282897309	0.0	0.9213400933493635	-0.9732476803392247	0.0	0.9082721148580868	-0.9600571484414129	0.0	0.7940076421329983	-0.9489618423732703	0.0	0.9407188052291598	-0.16084266967076427	0.0	0.9806934879788058	-0.02562275859025484	0.0	0.9863486204178482	-0.10433218537951422	0.0	0.8823116869065561	-0.17923891754607293	0.0	0.7530092521144297	-0.27137928248171256	0.0	0.6439626616903064	-0.37084827363565587	0.0	0.95963311457524	-0.21403996725722374	0.0	0.9517718639627375	-0.3651549368932281	0.0	0.9892509064985128	-0.483331010483044	0.0
62	2.071610845295056	0.8844192921817735	-0.4874606143061227	0.0	0.8593993399217079	-0.4828366955821763	0.0	0.8417073206495242	-0.7186415533015839	0.0	0.8018151837190438	-0.9389419602239335	0.0	0.8908633761917082	-0.9728578105676969	0.0	0.8680969944591107	-0.9799486081881428	0.0	0.7801636634609378	-0.9671193068156152	0.0	0.9046612728196156	-0.491761071608447	0.0	0.9296284485074141	-0.7156635556908101	0.0	0.8218493254814274	-0.9278301374077534	0.0	0.9213123321122906	-0.972899311775346	0.0	0.9082527858344565	-0.9597200632560122	0.0	0.794146493444095	-0.9491580862483254	0.0	0.9409661863084138	-0.16104922486159323	0.0	0.9809448080235044	-0.02618007099429026	0.0	0.9861836623783188	-0.10451804157357696	0.0	0.8830076049453691	-0.17976644060175517	0.0	0.7537153971760531	-0.27183696418264114	0.0	0.6453955468144285	-0.3722370126912793	0.0	0.9593795974009098	-0.21402974968441021	0.0	0.9510839890214023	-0.36514527681091896	0.0	0.9892369147360672	-0.48330032491121167	0.0
63	2.105023923444976	0.88347419368664	-0.48653638368003815	0.0	0.858525697049087	-0.4818579109459903	0.0	0.841742993398901	-0.7173364565162409	0.0	0.8018384977537761	-0.9388993363335826	0.0	0.8909342521824318	-0.9719755858067232	0.0	0.8684702235483481	-0.9793671355818783	0.0	0.7797574674301234	-0.9670996009951155	0.0	0.9038813098743158	-0.49088513802646777	0.0	0.9294562420080331	-0.7147702770112443	0.0	0.8217726996319074	-0.9276621864532477	0.0	0.9211634939361587	-0.9721153218512497	0.0	0.9082862750003211	-0.9590143359712228	0.0	0.7942485903219405	-0.9489717939212732	0.0	0.9412118709339296	-0.16115430274096054	0.0	0.9809486034370644	-0.02664954692922767	0.0	0.9856911146195101	-0.10449060929806996	0.0	0.8837090227587886	-0.18037345555345116	0.0	0.7544973960694977	-0.27264710173536877	0.0	0.6474249757236475	-0.37467550384085235	0.0	0.9590427485194992	-0.21386439432117843	0.0	0.9502343012672005	-0.36507636353481576	0.0	0.9895398129365961	-0.4832940363860721	0.0
